<svg width="42" height="42" viewBox="0 0 42 42" fill="none" xmlns="http://www.w3.org/2000/svg">
<g filter="url(#filter0_b_105_398)">
<rect width="42" height="42" rx="21" fill="white" fill-opacity="0.2"/>
<path d="M23.9998 17H24.0091" stroke="white" stroke-linecap="round" stroke-linejoin="round"/>
<path d="M26 13H16C14.3431 13 13 14.3431 13 16V26C13 27.6569 14.3431 29 16 29H26C27.6569 29 29 27.6569 29 26V16C29 14.3431 27.6569 13 26 13Z" stroke="white" stroke-linecap="round" stroke-linejoin="round"/>
<path d="M13 24L17 20C17.4561 19.5611 17.9734 19.3301 18.5 19.3301C19.0266 19.3301 19.5439 19.5611 20 20L25 25" stroke="white" stroke-linecap="round" stroke-linejoin="round"/>
<path d="M23.0002 23L24.0002 22C24.4563 21.5611 24.9736 21.3301 25.5002 21.3301C26.0269 21.3301 26.5442 21.5611 27.0002 22L29.0002 24" stroke="white" stroke-linecap="round" stroke-linejoin="round"/>
</g>
<defs>
<filter id="filter0_b_105_398" x="-12" y="-12" width="66" height="66" filterUnits="userSpaceOnUse" color-interpolation-filters="sRGB">
<feFlood flood-opacity="0" result="BackgroundImageFix"/>
<feGaussianBlur in="BackgroundImageFix" stdDeviation="6"/>
<feComposite in2="SourceAlpha" operator="in" result="effect1_backgroundBlur_105_398"/>
<feBlend mode="normal" in="SourceGraphic" in2="effect1_backgroundBlur_105_398" result="shape"/>
</filter>
</defs>
</svg>
