<svg width="24" height="24" viewBox="0 0 24 24" fill="none" xmlns="http://www.w3.org/2000/svg">
<g clip-path="url(#clip0_204_114)">
<path d="M21.3333 4H2.66666C2.31304 4 1.9739 4.14048 1.72385 4.39052C1.4738 4.64057 1.33333 4.97971 1.33333 5.33333V18.6667C1.33333 19.0203 1.4738 19.3594 1.72385 19.6095C1.9739 19.8595 2.31304 20 2.66666 20H21.3333C21.6869 20 22.0261 19.8595 22.2761 19.6095C22.5262 19.3594 22.6667 19.0203 22.6667 18.6667V5.33333C22.6667 4.97971 22.5262 4.64057 22.2761 4.39052C22.0261 4.14048 21.6869 4 21.3333 4ZM20.3067 18.6667H3.77333L8.43999 13.84L7.47999 12.9133L2.66666 17.8933V6.34667L10.9533 14.5933C11.2031 14.8417 11.5411 14.9811 11.8933 14.9811C12.2456 14.9811 12.5835 14.8417 12.8333 14.5933L21.3333 6.14V17.8067L16.4267 12.9L15.4867 13.84L20.3067 18.6667ZM3.53999 5.33333H20.2533L11.8933 13.6467L3.53999 5.33333Z" fill="#252525"/>
</g>
<defs>
<clipPath id="clip0_204_114">
<rect width="24" height="24" fill="white"/>
</clipPath>
</defs>
</svg>
