<svg width="20" height="19" viewBox="0 0 20 19" fill="none" xmlns="http://www.w3.org/2000/svg">
<path fill-rule="evenodd" clip-rule="evenodd" d="M10 17.0796C5.40002 17.0796 1.66669 13.6093 1.66669 9.31615C1.66669 5.03074 5.40002 1.55273 10 1.55273C14.6084 1.55273 18.3334 5.03074 18.3334 9.31615C18.3334 13.6093 14.6084 17.0796 10 17.0796ZM12.6584 12.1963C12.7584 12.2507 12.8667 12.2817 12.9834 12.2817C13.1917 12.2817 13.4 12.1808 13.5167 11.9945C13.6917 11.7228 13.6 11.3657 13.3 11.1949L10.3334 9.54902V5.96233C10.3334 5.63626 10.05 5.38007 9.70835 5.38007C9.36669 5.38007 9.08335 5.63626 9.08335 5.96233V9.88285C9.08335 10.0847 9.20002 10.271 9.39169 10.3797L12.6584 12.1963Z" fill="#F77E53"/>
</svg>
