<svg width="20" height="19" viewBox="0 0 20 19" fill="none" xmlns="http://www.w3.org/2000/svg">
<path fill-rule="evenodd" clip-rule="evenodd" d="M13.4653 6.39161C13.4653 8.21576 11.9043 9.67844 9.95753 9.67844C8.01078 9.67844 6.44979 8.21576 6.44979 6.39161C6.44979 4.56675 8.01078 3.10547 9.95753 3.10547C11.9043 3.10547 13.4653 4.56675 13.4653 6.39161ZM9.95754 15.5269C7.09822 15.5269 4.65675 15.1046 4.65675 13.4154C4.65675 11.7255 7.08255 11.2878 9.95754 11.2878C12.8169 11.2878 15.2583 11.7101 15.2583 13.4C15.2583 15.0893 12.8325 15.5269 9.95754 15.5269ZM14.9643 6.45087C14.9643 7.38078 14.6665 8.24706 14.1442 8.96721C14.0905 9.04133 14.1382 9.14131 14.233 9.15669C14.3636 9.17767 14.4986 9.18955 14.6359 9.19305C16.0052 9.22661 17.2341 8.40088 17.5736 7.15774C18.0765 5.31121 16.5999 3.65346 14.7195 3.65346C14.5151 3.65346 14.3196 3.67374 14.1293 3.71009C14.1032 3.71569 14.0756 3.72687 14.0606 3.74855C14.0427 3.77512 14.0562 3.81078 14.0741 3.83385C14.6389 4.57568 14.9643 5.48041 14.9643 6.45087ZM17.2319 10.4905C18.1519 10.659 18.757 11.003 19.0077 11.5029C19.2197 11.9133 19.2197 12.3894 19.0077 12.7992C18.6242 13.5746 17.3878 13.8235 16.9073 13.8878C16.808 13.9018 16.7282 13.8214 16.7386 13.7284C16.9841 11.5798 15.0314 10.5611 14.5263 10.3269C14.5046 10.3164 14.5001 10.3003 14.5024 10.2905C14.5039 10.2835 14.5128 10.2723 14.5292 10.2702C15.6224 10.2514 16.7976 10.3912 17.2319 10.4905ZM5.36426 9.19304C5.50156 9.18955 5.63587 9.17836 5.7672 9.15668C5.86196 9.1413 5.90971 9.04132 5.85599 8.96721C5.33367 8.24705 5.03595 7.38077 5.03595 6.45086C5.03595 5.4804 5.36128 4.57567 5.92613 3.83384C5.94404 3.81077 5.95672 3.77511 5.93956 3.74854C5.92464 3.72756 5.89628 3.71568 5.87091 3.71008C5.67989 3.67373 5.4844 3.65345 5.27995 3.65345C3.3996 3.65345 1.92293 5.3112 2.4266 7.15773C2.7661 8.40087 3.99504 9.2266 5.36426 9.19304ZM5.49746 10.2901C5.4997 10.3006 5.49522 10.3159 5.47433 10.3271C4.96843 10.5614 3.0157 11.5801 3.26119 13.7279C3.27164 13.8216 3.19254 13.9013 3.0933 13.8881C2.61277 13.8237 1.37637 13.5748 0.992837 12.7994C0.780179 12.389 0.780179 11.9136 0.992837 11.5032C1.24355 11.0032 1.84795 10.6592 2.76797 10.49C3.20299 10.3915 4.37746 10.2516 5.47134 10.2705C5.48776 10.2726 5.49597 10.2838 5.49746 10.2901Z" fill="#F77E53"/>
</svg>
