<svg width="20" height="19" viewBox="0 0 20 19" fill="none" xmlns="http://www.w3.org/2000/svg">
<path fill-rule="evenodd" clip-rule="evenodd" d="M13.4653 6.39161C13.4653 8.21576 11.9043 9.67844 9.95752 9.67844C8.01077 9.67844 6.44978 8.21576 6.44978 6.39161C6.44978 4.56675 8.01077 3.10547 9.95752 3.10547C11.9043 3.10547 13.4653 4.56675 13.4653 6.39161ZM9.95753 15.5269C7.09821 15.5269 4.65674 15.1046 4.65674 13.4154C4.65674 11.7255 7.08254 11.2878 9.95753 11.2878C12.8168 11.2878 15.2583 11.7101 15.2583 13.4C15.2583 15.0893 12.8325 15.5269 9.95753 15.5269ZM14.9642 6.45087C14.9642 7.38078 14.6665 8.24706 14.1442 8.96721C14.0905 9.04133 14.1382 9.14131 14.233 9.15669C14.3636 9.17767 14.4986 9.18955 14.6359 9.19305C16.0051 9.22661 17.2341 8.40088 17.5736 7.15774C18.0765 5.31121 16.5998 3.65346 14.7195 3.65346C14.515 3.65346 14.3196 3.67374 14.1293 3.71009C14.1032 3.71569 14.0756 3.72687 14.0606 3.74855C14.0427 3.77512 14.0562 3.81078 14.0741 3.83385C14.6389 4.57568 14.9642 5.48041 14.9642 6.45087ZM17.2318 10.4905C18.1519 10.659 18.757 11.003 19.0077 11.5029C19.2196 11.9133 19.2196 12.3894 19.0077 12.7992C18.6242 13.5746 17.3878 13.8235 16.9073 13.8878C16.808 13.9018 16.7282 13.8214 16.7386 13.7284C16.9841 11.5798 15.0314 10.5611 14.5262 10.3269C14.5046 10.3164 14.5001 10.3003 14.5024 10.2905C14.5039 10.2835 14.5128 10.2723 14.5292 10.2702C15.6224 10.2514 16.7976 10.3912 17.2318 10.4905ZM5.36425 9.19304C5.50155 9.18955 5.63586 9.17836 5.76718 9.15668C5.86195 9.1413 5.9097 9.04132 5.85598 8.96721C5.33366 8.24705 5.03594 7.38077 5.03594 6.45086C5.03594 5.4804 5.36127 4.57567 5.92612 3.83384C5.94403 3.81077 5.95671 3.77511 5.93955 3.74854C5.92463 3.72756 5.89627 3.71568 5.8709 3.71008C5.67988 3.67373 5.48439 3.65345 5.27994 3.65345C3.39959 3.65345 1.92292 5.3112 2.42659 7.15773C2.76609 8.40087 3.99503 9.2266 5.36425 9.19304ZM5.49745 10.2901C5.49969 10.3006 5.49521 10.3159 5.47432 10.3271C4.96841 10.5614 3.01569 11.5801 3.26118 13.7279C3.27163 13.8216 3.19253 13.9013 3.09329 13.8881C2.61276 13.8237 1.37636 13.5748 0.992826 12.7994C0.780168 12.389 0.780168 11.9136 0.992826 11.5032C1.24354 11.0032 1.84794 10.6592 2.76796 10.49C3.20298 10.3915 4.37745 10.2516 5.47133 10.2705C5.48775 10.2726 5.49596 10.2838 5.49745 10.2901Z" fill="#F77E53"/>
</svg>
