<svg width="20" height="19" viewBox="0 0 20 19" fill="none" xmlns="http://www.w3.org/2000/svg">
<path fill-rule="evenodd" clip-rule="evenodd" d="M9.99999 17.0796C5.39999 17.0796 1.66666 13.6093 1.66666 9.31615C1.66666 5.03074 5.39999 1.55273 9.99999 1.55273C14.6083 1.55273 18.3333 5.03074 18.3333 9.31615C18.3333 13.6093 14.6083 17.0796 9.99999 17.0796ZM12.6583 12.1963C12.7583 12.2507 12.8667 12.2817 12.9833 12.2817C13.1917 12.2817 13.4 12.1808 13.5167 11.9945C13.6917 11.7228 13.6 11.3657 13.3 11.1949L10.3333 9.54902V5.96233C10.3333 5.63626 10.05 5.38007 9.70832 5.38007C9.36666 5.38007 9.08332 5.63626 9.08332 5.96233V9.88285C9.08332 10.0847 9.19999 10.271 9.39166 10.3797L12.6583 12.1963Z" fill="#F77E53"/>
</svg>
