<svg width="20" height="19" viewBox="0 0 20 19" fill="none" xmlns="http://www.w3.org/2000/svg">
<path fill-rule="evenodd" clip-rule="evenodd" d="M13.4652 6.39161C13.4652 8.21576 11.9043 9.67844 9.9575 9.67844C8.01075 9.67844 6.44976 8.21576 6.44976 6.39161C6.44976 4.56675 8.01075 3.10547 9.9575 3.10547C11.9043 3.10547 13.4652 4.56675 13.4652 6.39161ZM9.95751 15.5269C7.09819 15.5269 4.65672 15.1046 4.65672 13.4154C4.65672 11.7255 7.08252 11.2878 9.95751 11.2878C12.8168 11.2878 15.2583 11.7101 15.2583 13.4C15.2583 15.0893 12.8325 15.5269 9.95751 15.5269ZM14.9642 6.45087C14.9642 7.38078 14.6665 8.24706 14.1442 8.96721C14.0905 9.04133 14.1382 9.14131 14.233 9.15669C14.3636 9.17767 14.4986 9.18955 14.6359 9.19305C16.0051 9.22661 17.2341 8.40088 17.5736 7.15774C18.0765 5.31121 16.5998 3.65346 14.7195 3.65346C14.515 3.65346 14.3195 3.67374 14.1293 3.71009C14.1031 3.71569 14.0755 3.72687 14.0606 3.74855C14.0427 3.77512 14.0561 3.81078 14.074 3.83385C14.6389 4.57568 14.9642 5.48041 14.9642 6.45087ZM17.2318 10.4905C18.1519 10.659 18.757 11.003 19.0077 11.5029C19.2196 11.9133 19.2196 12.3894 19.0077 12.7992C18.6242 13.5746 17.3878 13.8235 16.9072 13.8878C16.808 13.9018 16.7282 13.8214 16.7386 13.7284C16.9841 11.5798 15.0314 10.5611 14.5262 10.3269C14.5046 10.3164 14.5001 10.3003 14.5023 10.2905C14.5038 10.2835 14.5128 10.2723 14.5292 10.2702C15.6223 10.2514 16.7976 10.3912 17.2318 10.4905ZM5.36423 9.19304C5.50153 9.18955 5.63584 9.17836 5.76716 9.15668C5.86193 9.1413 5.90968 9.04132 5.85596 8.96721C5.33364 8.24705 5.03592 7.38077 5.03592 6.45086C5.03592 5.4804 5.36125 4.57567 5.9261 3.83384C5.94401 3.81077 5.95669 3.77511 5.93953 3.74854C5.92461 3.72756 5.89625 3.71568 5.87088 3.71008C5.67986 3.67373 5.48437 3.65345 5.27992 3.65345C3.39957 3.65345 1.9229 5.3112 2.42657 7.15773C2.76607 8.40087 3.99501 9.2266 5.36423 9.19304ZM5.49743 10.2901C5.49967 10.3006 5.49519 10.3159 5.4743 10.3271C4.96839 10.5614 3.01567 11.5801 3.26116 13.7279C3.27161 13.8216 3.19251 13.9013 3.09327 13.8881C2.61274 13.8237 1.37634 13.5748 0.992807 12.7994C0.780148 12.389 0.780148 11.9136 0.992807 11.5032C1.24352 11.0032 1.84792 10.6592 2.76794 10.49C3.20296 10.3915 4.37743 10.2516 5.47131 10.2705C5.48773 10.2726 5.49594 10.2838 5.49743 10.2901Z" fill="#F77E53"/>
</svg>
