<svg width="20" height="19" viewBox="0 0 20 19" fill="none" xmlns="http://www.w3.org/2000/svg">
<path fill-rule="evenodd" clip-rule="evenodd" d="M11.7677 8.72057H14.0742C14.424 8.72057 14.6988 8.4512 14.6988 8.12638C14.6988 7.79363 14.424 7.53218 14.0742 7.53218H11.7677C11.418 7.53218 11.1432 7.79363 11.1432 8.12638C11.1432 8.4512 11.418 8.72057 11.7677 8.72057ZM16.8138 4.60156C17.3217 4.60156 17.6548 4.76794 17.9879 5.13238C18.3209 5.49682 18.3792 6.01972 18.3043 6.49428L17.5132 11.6915C17.3633 12.6906 16.464 13.4266 15.4065 13.4266H6.32195C5.21448 13.4266 4.29853 12.6193 4.20693 11.5735L3.44086 2.93702L2.18351 2.73103C1.85043 2.67557 1.61728 2.36659 1.67557 2.04969C1.73386 1.72565 2.05861 1.51095 2.40001 1.55927L4.38596 1.8437C4.66907 1.89202 4.87724 2.11307 4.90222 2.38244L5.06043 4.15711C5.08541 4.41142 5.30191 4.60156 5.56837 4.60156H16.8138ZM6.18855 14.6788C5.4891 14.6788 4.92287 15.2175 4.92287 15.883C4.92287 16.5406 5.4891 17.0793 6.18855 17.0793C6.87968 17.0793 7.44591 16.5406 7.44591 15.883C7.44591 15.2175 6.87968 14.6788 6.18855 14.6788ZM15.5563 14.6788C14.8568 14.6788 14.2906 15.2175 14.2906 15.883C14.2906 16.5406 14.8568 17.0793 15.5563 17.0793C16.2474 17.0793 16.8136 16.5406 16.8136 15.883C16.8136 15.2175 16.2474 14.6788 15.5563 14.6788Z" fill="#3E3104"/>
</svg>
