<svg width="20" height="19" viewBox="0 0 20 19" fill="none" xmlns="http://www.w3.org/2000/svg">
<path fill-rule="evenodd" clip-rule="evenodd" d="M11.7677 8.72057H14.0743C14.424 8.72057 14.6988 8.4512 14.6988 8.12638C14.6988 7.79363 14.424 7.53218 14.0743 7.53218H11.7677C11.418 7.53218 11.1432 7.79363 11.1432 8.12638C11.1432 8.4512 11.418 8.72057 11.7677 8.72057ZM16.8138 4.60156C17.3217 4.60156 17.6548 4.76794 17.9879 5.13238C18.321 5.49682 18.3792 6.01972 18.3043 6.49428L17.5133 11.6915C17.3634 12.6906 16.4641 13.4266 15.4066 13.4266H6.32198C5.21451 13.4266 4.29856 12.6193 4.20696 11.5735L3.44089 2.93702L2.18354 2.73103C1.85047 2.67557 1.61731 2.36659 1.6756 2.04969C1.73389 1.72565 2.05864 1.51095 2.40004 1.55927L4.38599 1.8437C4.6691 1.89202 4.87727 2.11307 4.90225 2.38244L5.06046 4.15711C5.08544 4.41142 5.30194 4.60156 5.5684 4.60156H16.8138ZM6.18858 14.6788C5.48913 14.6788 4.9229 15.2175 4.9229 15.883C4.9229 16.5406 5.48913 17.0793 6.18858 17.0793C6.87971 17.0793 7.44594 16.5406 7.44594 15.883C7.44594 15.2175 6.87971 14.6788 6.18858 14.6788ZM15.5563 14.6788C14.8568 14.6788 14.2906 15.2175 14.2906 15.883C14.2906 16.5406 14.8568 17.0793 15.5563 17.0793C16.2474 17.0793 16.8136 16.5406 16.8136 15.883C16.8136 15.2175 16.2474 14.6788 15.5563 14.6788Z" fill="white"/>
</svg>
