<svg width="30" height="30" viewBox="0 0 30 30" fill="none" xmlns="http://www.w3.org/2000/svg">
<path d="M14.9999 11.0946C12.8495 11.0946 11.0946 12.8495 11.0946 14.9999C11.0946 17.1503 12.8495 18.9052 14.9999 18.9052C17.1503 18.9052 18.9052 17.1503 18.9052 14.9999C18.9052 12.8495 17.1503 11.0946 14.9999 11.0946ZM26.7128 14.9999C26.7128 13.3827 26.7275 11.7802 26.6366 10.1659C26.5458 8.29091 26.1181 6.62685 24.747 5.25575C23.373 3.88173 21.7118 3.45693 19.8368 3.36611C18.2196 3.27529 16.6171 3.28993 15.0028 3.28993C13.3856 3.28993 11.7831 3.27529 10.1688 3.36611C8.29384 3.45693 6.62978 3.88466 5.25869 5.25575C3.88466 6.62978 3.45986 8.29091 3.36904 10.1659C3.27822 11.7831 3.29286 13.3856 3.29286 14.9999C3.29286 16.6141 3.27822 18.2196 3.36904 19.8339C3.45986 21.7089 3.88759 23.3729 5.25869 24.744C6.63271 26.118 8.29384 26.5429 10.1688 26.6337C11.786 26.7245 13.3886 26.7098 15.0028 26.7098C16.62 26.7098 18.2226 26.7245 19.8368 26.6337C21.7118 26.5429 23.3759 26.1151 24.747 24.744C26.121 23.37 26.5458 21.7089 26.6366 19.8339C26.7304 18.2196 26.7128 16.6171 26.7128 14.9999ZM14.9999 21.0087C11.6747 21.0087 8.99111 18.3251 8.99111 14.9999C8.99111 11.6747 11.6747 8.9911 14.9999 8.9911C18.3251 8.9911 21.0087 11.6747 21.0087 14.9999C21.0087 18.3251 18.3251 21.0087 14.9999 21.0087ZM21.2548 10.1483C20.4784 10.1483 19.8515 9.52138 19.8515 8.74501C19.8515 7.96864 20.4784 7.34169 21.2548 7.34169C22.0312 7.34169 22.6581 7.96864 22.6581 8.74501C22.6583 8.92936 22.6222 9.11195 22.5518 9.28231C22.4813 9.45267 22.378 9.60747 22.2476 9.73782C22.1172 9.86818 21.9625 9.97154 21.7921 10.042C21.6217 10.1124 21.4391 10.1486 21.2548 10.1483Z" fill="#252525"/>
</svg>
