<svg width="24" height="24" viewBox="0 0 24 24" fill="none" xmlns="http://www.w3.org/2000/svg">
<path d="M18 9.75H16.5C16.4994 9.15345 16.2622 8.5815 15.8403 8.15967C15.4185 7.73784 14.8466 7.5006 14.25 7.5V6C15.2442 6.00119 16.1973 6.39666 16.9003 7.09966C17.6033 7.80267 17.9988 8.7558 18 9.75V9.75Z" fill="#252525"/>
<path d="M21 9.75H19.5C19.4984 8.3581 18.9448 7.02367 17.9606 6.03944C16.9763 5.05522 15.6419 4.50159 14.25 4.5V3C16.0396 3.00199 17.7553 3.71378 19.0208 4.97922C20.2862 6.24466 20.998 7.9604 21 9.75V9.75ZM19.5 21.75H19.3725C4.635 20.9025 2.5425 8.4675 2.25 4.6725C2.20428 4.07756 2.39676 3.48883 2.78509 3.03579C3.17343 2.58276 3.72581 2.30253 4.32075 2.25675C4.38025 2.25225 4.44 2.25 4.5 2.25H8.4525C8.75291 2.24971 9.0465 2.33963 9.29522 2.50812C9.54394 2.67661 9.73634 2.9159 9.8475 3.195L10.9875 6C11.0973 6.27266 11.1245 6.57156 11.0658 6.85957C11.0072 7.14758 10.8652 7.412 10.6575 7.62L9.06 9.2325C9.30852 10.651 9.98728 11.9587 11.0042 12.9784C12.0212 13.998 13.3272 14.6802 14.745 14.9325L16.3725 13.32C16.5836 13.1146 16.8505 12.9759 17.14 12.9213C17.4294 12.8666 17.7285 12.8983 18 13.0125L20.8275 14.145C21.1024 14.2597 21.3369 14.4536 21.5012 14.702C21.6655 14.9504 21.7521 15.2422 21.75 15.54V19.5C21.75 20.0967 21.5129 20.669 21.091 21.091C20.669 21.5129 20.0967 21.75 19.5 21.75ZM4.5 3.75C4.4015 3.7497 4.30392 3.76881 4.21281 3.80623C4.1217 3.84365 4.03886 3.89864 3.96901 3.96808C3.89915 4.03751 3.84366 4.12003 3.8057 4.21091C3.76773 4.30179 3.74804 4.39926 3.74775 4.49775C3.74775 4.51875 3.7485 4.5395 3.75 4.56C4.095 9 6.3075 19.5 19.455 20.25C19.6535 20.2619 19.8486 20.1945 19.9974 20.0625C20.1462 19.9306 20.2365 19.745 20.2485 19.5465L20.25 19.5V15.54L17.4225 14.4075L15.27 16.545L14.91 16.5C8.385 15.6825 7.5 9.1575 7.5 9.09L7.455 8.73L9.585 6.5775L8.46 3.75H4.5Z" fill="#252525"/>
</svg>
