<svg width="24" height="24" viewBox="0 0 24 24" fill="none" xmlns="http://www.w3.org/2000/svg">
<g clip-path="url(#clip0_6_134)">
<path d="M21.3333 4H2.66668C2.31305 4 1.97392 4.14048 1.72387 4.39052C1.47382 4.64057 1.33334 4.97971 1.33334 5.33333V18.6667C1.33334 19.0203 1.47382 19.3594 1.72387 19.6095C1.97392 19.8595 2.31305 20 2.66668 20H21.3333C21.687 20 22.0261 19.8595 22.2762 19.6095C22.5262 19.3594 22.6667 19.0203 22.6667 18.6667V5.33333C22.6667 4.97971 22.5262 4.64057 22.2762 4.39052C22.0261 4.14048 21.687 4 21.3333 4V4ZM20.3067 18.6667H3.77334L8.44001 13.84L7.48001 12.9133L2.66668 17.8933V6.34667L10.9533 14.5933C11.2032 14.8417 11.5411 14.9811 11.8933 14.9811C12.2456 14.9811 12.5835 14.8417 12.8333 14.5933L21.3333 6.14V17.8067L16.4267 12.9L15.4867 13.84L20.3067 18.6667ZM3.54001 5.33333H20.2533L11.8933 13.6467L3.54001 5.33333Z" fill="#252525"/>
</g>
<defs>
<clipPath id="clip0_6_134">
<rect width="24" height="24" fill="white"/>
</clipPath>
</defs>
</svg>
