<svg width="138" height="30" viewBox="0 0 138 30" fill="none" xmlns="http://www.w3.org/2000/svg">
<path d="M15 11.0947C12.8496 11.0947 11.0947 12.8496 11.0947 15C11.0947 17.1504 12.8496 18.9053 15 18.9053C17.1504 18.9053 18.9053 17.1504 18.9053 15C18.9053 12.8496 17.1504 11.0947 15 11.0947ZM26.7129 15C26.7129 13.3828 26.7276 11.7803 26.6368 10.166C26.5459 8.29103 26.1182 6.62697 24.7471 5.25588C23.3731 3.88185 21.7119 3.45705 19.8369 3.36623C18.2198 3.27541 16.6172 3.29006 15.003 3.29006C13.3858 3.29006 11.7832 3.27541 10.169 3.36623C8.29397 3.45705 6.6299 3.88478 5.25881 5.25588C3.88478 6.6299 3.45998 8.29103 3.36916 10.166C3.27834 11.7832 3.29299 13.3858 3.29299 15C3.29299 16.6143 3.27834 18.2197 3.36916 19.834C3.45998 21.709 3.88771 23.3731 5.25881 24.7441C6.63283 26.1182 8.29397 26.543 10.169 26.6338C11.7862 26.7246 13.3887 26.71 15.003 26.71C16.6201 26.71 18.2227 26.7246 19.8369 26.6338C21.7119 26.543 23.376 26.1152 24.7471 24.7441C26.1211 23.3701 26.5459 21.709 26.6368 19.834C26.7305 18.2197 26.7129 16.6172 26.7129 15V15ZM15 21.0088C11.6748 21.0088 8.99123 18.3252 8.99123 15C8.99123 11.6748 11.6748 8.99123 15 8.99123C18.3252 8.99123 21.0088 11.6748 21.0088 15C21.0088 18.3252 18.3252 21.0088 15 21.0088ZM21.2549 10.1485C20.4785 10.1485 19.8516 9.5215 19.8516 8.74513C19.8516 7.96876 20.4785 7.34181 21.2549 7.34181C22.0313 7.34181 22.6582 7.96876 22.6582 8.74513C22.6585 8.92948 22.6223 9.11207 22.5519 9.28243C22.4814 9.4528 22.3781 9.60759 22.2477 9.73794C22.1174 9.8683 21.9626 9.97166 21.7922 10.0421C21.6219 10.1125 21.4393 10.1487 21.2549 10.1485V10.1485Z" fill="#252525"/>
<g clip-path="url(#clip0_6_137)">
<path d="M81 2.84287C80.3317 4.06666 79.5117 5.10989 78.5402 5.97254C78.5498 6.2039 78.5546 6.4654 78.5546 6.75703C78.5546 8.3774 78.3627 9.99973 77.9789 11.624C77.5951 13.2483 77.0088 14.8031 76.2201 16.2882C75.4314 17.7734 74.4918 19.0892 73.4015 20.2355C72.3112 21.3818 71.0006 22.2958 69.4697 22.9775C67.9388 23.6592 66.2981 24 64.5476 24C61.8157 24 59.2998 23.0921 57 21.2762C57.4082 21.3321 57.7997 21.3601 58.1744 21.3601C60.4568 21.3601 62.4953 20.4947 64.2899 18.7638C63.2258 18.7398 62.2728 18.3365 61.4308 17.554C60.5889 16.7715 60.0096 15.7716 59.6927 14.5543C60.0059 14.6277 60.315 14.6645 60.62 14.6645C61.0591 14.6645 61.4911 14.594 61.9161 14.453C60.7805 14.173 59.8384 13.4766 59.0898 12.364C58.3412 11.2514 57.9669 9.9672 57.9669 8.51146V8.43643C58.664 8.91157 59.4075 9.1643 60.1975 9.19464C59.5248 8.64251 58.9914 7.92252 58.5973 7.03466C58.2033 6.14681 58.0063 5.18599 58.0063 4.15222C58.0063 3.06193 58.2282 2.04666 58.6721 1.10642C59.9071 2.97214 61.4035 4.46327 63.1614 5.57983C64.9194 6.69641 66.8053 7.31652 68.8193 7.44017C68.7334 6.99948 68.6903 6.5396 68.6902 6.06053C68.6902 4.38779 69.171 2.95952 70.1327 1.77571C71.0945 0.591904 72.2547 0 73.6135 0C75.0361 0 76.2344 0.637688 77.2083 1.91306C78.3211 1.64172 79.363 1.15093 80.3341 0.440688C79.96 1.89013 79.2391 3.00827 78.1714 3.79512C79.1527 3.65157 80.0955 3.33415 81 2.84287H81Z" fill="#252525"/>
</g>
<path d="M124.746 26.2462V16.0012H128.203L128.716 11.99H124.746V9.43497C124.746 8.27747 125.069 7.48497 126.73 7.48497H128.835V3.90872C127.811 3.79896 126.781 3.74596 125.751 3.74997C122.696 3.74997 120.599 5.61497 120.599 9.03872V11.9825H117.165V15.9937H120.606V26.2462H124.746Z" fill="#252525"/>
<defs>
<clipPath id="clip0_6_137">
<rect width="24" height="24" fill="white" transform="translate(57)"/>
</clipPath>
</defs>
</svg>
