<svg width="31" height="31" viewBox="0 0 31 31" fill="none" xmlns="http://www.w3.org/2000/svg">
<path d="M27.0705 15.5121C24.3277 12.3516 20.5375 8.71875 15.5 8.71875C13.4656 8.71875 11.6008 9.29395 9.63301 10.523C7.97402 11.5645 6.27266 13.0297 3.93555 15.4395L3.875 15.5L4.28066 15.9178C7.6168 19.3326 10.4988 22.2812 15.5 22.2812C17.71 22.2812 19.8533 21.5607 22.0512 20.0773C23.9221 18.8119 25.5145 17.2074 26.792 15.9117L27.125 15.5787L27.0705 15.5121ZM15.5 20.3438C12.8299 20.3438 10.6562 18.1701 10.6562 15.5C10.6562 12.8299 12.8299 10.6562 15.5 10.6562C18.1701 10.6562 20.3438 12.8299 20.3438 15.5C20.3438 18.1701 18.1701 20.3438 15.5 20.3438Z" fill="#BEBCBC"/>
<path d="M15.1609 13.732C15.1609 13.3143 15.282 12.9207 15.4939 12.5938C13.8895 12.5938 12.5938 13.9016 12.5938 15.5121C12.5938 17.1227 13.8955 18.4244 15.4939 18.4244C17.0924 18.4244 18.4002 17.1227 18.4002 15.5121C18.0732 15.724 17.6797 15.8451 17.2619 15.8451C16.1055 15.8391 15.1609 14.8945 15.1609 13.732Z" fill="#BEBCBC"/>
</svg>
